<svg xmlns="http://www.w3.org/2000/svg" viewBox="0 0 740.85 232.98">
    <title>RGB_Black_Logo_Break</title>
    <g id="Layer_3" data-name="Layer 3" fill="#fff">
        <path d="M230.85,36.86h38.71V248H230.85Z" transform="translate(-20.8 -19.13)"/>
        <path d="M307,239.36Q293,226.61,293,202V103.14h38.71v85.05q0,14.07,7.48,21.11t20.09,7q14.35,0,23.6-10.41t9.24-28V103.14h38.71V248H392.14V230.12a56.81,56.81,0,0,1-20.67,16,62.34,62.34,0,0,1-26.84,6Q320.89,252.12,307,239.36Z"
              transform="translate(-20.8 -19.13)"/>
        <path d="M453.14,103.14h38.71V121a56.79,56.79,0,0,1,20.67-16,62.2,62.2,0,0,1,26.84-6q23.75,0,37.68,12.76T591,149.18V248H552.26V163q0-14.08-7.48-21.12t-20.09-7q-14.37,0-23.61,10.41t-9.23,28V248H453.14Z"
              transform="translate(-20.8 -19.13)"/>
        <path d="M643.32,242.73a71.69,71.69,0,0,1-26.4-26.83q-10.11-17.44-10.12-40.32a78.44,78.44,0,0,1,9.68-38.42,73.8,73.8,0,0,1,26.39-27.86A68.79,68.79,0,0,1,679.53,99a67.69,67.69,0,0,1,25.66,4.7q11.58,4.68,17.75,12.61v-13.2h38.71V248H722.94v-13.2a66.93,66.93,0,0,1-19.36,12.91q-10.26,4.4-26.39,4.4A66.86,66.86,0,0,1,643.32,242.73Zm70.53-38.12q10.85-11.73,10.85-29t-10.85-29Q703,134.82,685.11,134.81t-28.74,11.73q-10.86,11.73-10.86,29t10.86,29q10.85,11.73,28.74,11.73T713.85,204.61Z"
              transform="translate(-20.8 -19.13)"/>
        <path d="M160.37,186.92a36.35,36.35,0,0,0-23-8.14H60.22a19.12,19.12,0,0,1-15.4-7.89l-.16-.23c-.22-.31-.43-.64-.64-1l-.25-.41c-.26-.46-.52-.93-.75-1.42h0c-.57-1.21-1.07-2.44-1.53-3.68a48.89,48.89,0,0,1-2.08-7h0c-.21-1-.38-2-.53-2.92l0-.14c0-.05,0-.09,0-.14a.22.22,0,0,1,0-.08,51.75,51.75,0,0,1-.51-5.82h0v-.17c0-.48,0-1,0-1.45s0-1,0-1.45v-.11c0-.06,0-.12,0-.18v0s0-.08,0-.12,0-.18,0-.28h0v0c0-.07,0-.14,0-.2a.71.71,0,0,0,0-.14v-.1c0-.62.09-1.23.15-1.84,0-.15,0-.3,0-.44s0-.3,0-.44h0c.08-.71.16-1.41.27-2.12,0-.11,0-.21.05-.32.16-.93.33-1.85.54-2.77l.06-.29v0c.15-.65.32-1.28.49-1.92.08-.28.14-.57.22-.85v0c.08-.3.19-.6.29-.9.19-.6.37-1.2.58-1.79h0l.07-.21.08-.21c.31-.87.65-1.73,1-2.59,0,0,.05-.11.07-.17a.37.37,0,0,0,.05-.11c.36-.82.73-1.62,1.13-2.42l0-.06.11-.22c.41-.81.85-1.62,1.31-2.41l.28-.47c.47-.8,1-1.58,1.48-2.35l.08-.12.05-.07c.5-.73,1-1.45,1.55-2.15l.3-.39c.28-.37.58-.71.88-1.07s.57-.71.87-1.06c0,0,0,0,0,0l.32-.36c.63-.72,1.28-1.42,2-2.1l69.27-69.26a18.86,18.86,0,0,1,9.7-5.21,19.61,19.61,0,0,1,7.48,0,19.07,19.07,0,0,1,14.54,13.43,19.35,19.35,0,0,1,.73,5.22A18.88,18.88,0,0,1,149.05,69c-19.25,18.57-34.67,33.41-47.1,45.37L89.34,126.55l-.3.29L86.75,129l-.76.74c-.77.74-1.53,1.46-2.26,2.18l-.26.24c-6.62,6.38-12,11.58-16.43,15.89l-.16.15-3.78,3.69h0c-5.23,5.13-8.92,8.82-11.8,11.83l.08.17a9.8,9.8,0,0,0,8.84,5.61h10c3.42-3.41,7.75-7.63,13.46-13.16l.51-.5,1.36-1.31.39-.38,1.53-1.49.46-.43,1.64-1.59.34-.33,2-1.89.9-.87,1.4-1.35.58-.56c.56-.53,1.12-1.08,1.7-1.64l.73-.7,2.2-2.12,0,0,2.67-2.56.13-.14c.77-.74,1.56-1.49,2.35-2.26l.66-.63,8.9-8.57c12.45-12,27.89-26.83,47.18-45.44l.11-.11a36.53,36.53,0,0,0,5.7-44.28,36.86,36.86,0,0,0-5.7-7.36h0a36.55,36.55,0,0,0-10.59-7.38c-.59-.27-1.18-.53-1.79-.76-1.05-.42-2.13-.79-3.22-1.11q-1.23-.36-2.49-.63a36.75,36.75,0,0,0-7.73-.82h0a37.5,37.5,0,0,0-4.12.24l-.39,0a36.73,36.73,0,0,0-3.63.64c-.64.14-1.26.3-1.89.48a36.05,36.05,0,0,0-12.08,6.06c-.77.59-1.51,1.22-2.24,1.86-.5.45-1,.9-1.47,1.38L40.47,99.09a67,67,0,0,0-16,25.78c-.21.63-.42,1.27-.62,1.91-.25.81-.48,1.62-.7,2.44-.14.5-.26,1-.39,1.5a67.35,67.35,0,0,0-1.83,19.61c.09,1.7.24,3.41.46,5.1s.51,3.39.86,5.07a67.18,67.18,0,0,0,5,14.83c.41.85.84,1.68,1.3,2.49l.48.77c.32.54.65,1.07,1,1.59.2.3.42.59.63.88.33.46.66.91,1,1.35s.49.59.73.88.71.82,1.08,1.22a36.84,36.84,0,0,0,16.53,10.28h0c.75.22,1.51.41,2.27.58l.34.08c.74.16,1.48.29,2.22.41l.41.06c.75.1,1.51.19,2.26.24l.34,0c.8.06,1.6.09,2.41.09h77.19a18.93,18.93,0,0,1,13.44,5.58q.65.64,1.23,1.35a19,19,0,0,1-14.67,31.09H60.28c-.77,0-1.51,0-2.23-.08l-.73-.08c-.46,0-.93-.1-1.38-.17-.28,0-.55-.11-.83-.16s-.78-.15-1.15-.24-.57-.16-.85-.25-.67-.19-1-.31-.56-.22-.84-.33l-.23-.1-.65-.28c-.28-.13-.55-.28-.81-.42s-.53-.29-.78-.44-.52-.34-.78-.51l-.67-.49c-.26-.2-.5-.4-.74-.61s-.39-.35-.58-.54-.46-.46-.68-.7-.34-.39-.5-.58-.43-.53-.63-.81-.28-.4-.41-.61-.39-.6-.57-.91l-.33-.64a10.91,10.91,0,0,1-.5-1c-.09-.2-.17-.42-.26-.63-.15-.38-.29-.76-.42-1.16-.07-.2-.13-.41-.19-.62-.12-.43-.24-.86-.35-1.3,0-.19-.07-.38-.11-.57-.1-.49-.19-1-.27-1.48,0-.14,0-.29-.05-.44-.07-.57-.13-1.14-.17-1.73s-.08-1.41-.08-2.14c0-3.33,1.1-7.21,3.23-11.53a45.93,45.93,0,0,1-14.85-9.35A55.56,55.56,0,0,0,24.45,204h0c-.23.81-.42,1.61-.59,2.4l-.06.26c-.17.81-.32,1.61-.43,2.4v0c-.1.73-.18,1.45-.24,2.17l0,.51c-.05.73-.09,1.46-.09,2.18,0,19.36,11,33.28,28,36.92a44.24,44.24,0,0,0,9.24.95h77.13a36.5,36.5,0,0,0,23-64.89Z"
              transform="translate(-20.8 -19.13)"/>
    </g>
</svg>